<svg xmlns="http://www.w3.org/2000/svg" viewBox="0 0 32 32">
  <style>
    .c { fill: oklch(70% 0.213 47.604); }
    @media (prefers-color-scheme: dark) {
      .c { fill: oklch(75% 0.18 277.117); }
    }
  </style>
  <defs>
    <mask id="windows">
      <rect width="32" height="32" fill="white" />
      <path d="M13 23 L13 17 A3 3 0 0 1 19 17 L19 23 Z" fill="black" />
      <path d="M15 9 L15 5 A1 1 0 0 1 17 5 L17 9 Z" fill="black" />
    </mask>
  </defs>
  <g mask="url(#windows)">
    <rect class="c" x="0" y="10" width="32" height="22" />
    <rect class="c" x="0" y="6" width="8" height="4" />
    <rect class="c" x="0" y="4" width="2" height="2" />
    <rect class="c" x="3" y="4" width="2" height="2" />
    <rect class="c" x="6" y="4" width="2" height="2" />
    <rect class="c" x="11" y="2" width="10" height="8" />
    <rect class="c" x="11" y="0" width="2" height="2" />
    <rect class="c" x="15" y="0" width="2" height="2" />
    <rect class="c" x="19" y="0" width="2" height="2" />
    <rect class="c" x="24" y="6" width="8" height="4" />
    <rect class="c" x="24" y="4" width="2" height="2" />
    <rect class="c" x="27" y="4" width="2" height="2" />
    <rect class="c" x="30" y="4" width="2" height="2" />
  </g>
</svg>
